<svg xmlns:dc="http://purl.org/dc/elements/1.1/" xmlns:cc="http://creativecommons.org/ns#" xmlns:rdf="http://www.w3.org/1999/02/22-rdf-syntax-ns#" xmlns:svg="http://www.w3.org/2000/svg" xmlns="http://www.w3.org/2000/svg" xmlns:sodipodi="http://sodipodi.sourceforge.net/DTD/sodipodi-0.dtd" xmlns:inkscape="http://www.inkscape.org/namespaces/inkscape" version="1.1" x="0px" y="0px" viewBox="0 0 100 125"><g transform="translate(0,-952.36218)"><path style="text-indent:0;text-transform:none;direction:ltr;block-progression:tb;baseline-shift:baseline;color:#000000;enable-background:accumulate;" d="m 18,971.36213 0,21.4375 -9.6875,15.49997 c -0.200768,0.3157 -0.310428,0.6885 -0.3125,1.0625 l 0,14.0001 c 1.05e-4,1.0472 0.952831,1.9999 2,2 l 1,0 0,8 c 1.05e-4,1.0472 0.952831,1.9999 2,2 l 8,0 c 1.047169,-10e-5 1.999895,-0.9528 2,-2 l 0,-8 54,0 0,8 c 1.05e-4,1.0472 0.952831,1.9999 2,2 l 8,0 c 1.04717,-10e-5 1.9999,-0.9528 2,-2 l 0,-8 1,0 c 1.04717,-10e-5 1.9999,-0.9528 2,-2 l 0,-14.0001 c -0.002,-0.374 -0.11173,-0.7468 -0.3125,-1.0625 L 82,992.79963 l 0,-21.4375 c -1e-4,-1.0471 -0.95283,-1.9999 -2,-2 l -60,0 c -1.143941,0.062 -1.975421,1.0992 -2,2 z m 4,2 56,0 0,18 -4,0 0,-6 c -1.05e-4,-1.0471 -0.952831,-1.9999 -2,-2 l -16,0 c -1.047169,10e-5 -1.999895,0.9529 -2,2 l 0,6 -8,0 0,-6 c -1.05e-4,-1.0471 -0.952831,-1.9999 -2,-2 l -16,0 c -1.047169,10e-5 -1.999895,0.9529 -2,2 l 0,6 -4,0 z m 8,14 12,0 0,4 -12,0 z m 28,0 12,0 0,4 -12,0 z m 20.90625,8 7.5,11.99997 -72.8125,0 7.5,-11.99997 M 12,1011.3621 l 76,0 0,10.0001 -76,0 z m 3,14.0001 4,0 0,6 -4,0 z m 66,0 4,0 0,6 -4,0 z" fill="#FFFFFF" fill-opacity="1" stroke="none" marker="none" visibility="visible" display="inline" overflow="visible"/></g></svg>
