<svg xmlns="http://www.w3.org/2000/svg" xmlns:xlink="http://www.w3.org/1999/xlink" version="1.1" x="0px" y="0px" viewBox="0 0 100 125" style="enable-background:new 0 0 100 100;" xml:space="preserve"><g><path d="M8.9,33l33.2,13.7L25.4,65.2l-9.2-0.6c-0.6,0-1.1,0.2-1.5,0.6l-3.5,3.5c-0.5,0.5-0.7,1.2-0.5,1.8s0.6,1.2,1.3,1.4l11.7,4.4   L28,88.1c0.2,0.6,0.8,1.1,1.4,1.3c0.7,0.1,1.4-0.1,1.8-0.5l3.5-3.5c0.4-0.4,0.6-1,0.6-1.5l-0.6-9.2l18.5-16.7l13.7,33.2   c0.3,0.6,0.8,1.1,1.5,1.2c0.1,0,0.3,0,0.4,0c0.5,0,1-0.2,1.4-0.6l6.5-6.5c0.5-0.5,0.7-1.1,0.6-1.8l-7.5-39.8L83,31.5   c6-5.5,9.2-13.3,8.8-21.4c-0.1-1-0.9-1.8-1.9-1.9C81.8,7.8,73.9,11,68.5,17L56.3,30.3l-39.8-7.5c-0.6-0.1-1.3,0.1-1.8,0.6l-6.5,6.5   c-0.5,0.5-0.7,1.1-0.5,1.8C7.8,32.2,8.3,32.8,8.9,33z M16.8,26.9l39.9,7.5c0.7,0.1,1.4-0.1,1.8-0.6l12.9-14.1   c4.2-4.7,10.1-7.3,16.4-7.5c-0.2,6.2-2.9,12.1-7.5,16.4L66.2,41.4c-0.5,0.5-0.7,1.2-0.6,1.8l7.5,39.9l-3.6,3.6L55.8,53.7   c-0.2-0.6-0.8-1-1.4-1.2c-0.1,0-0.3,0-0.4,0c-0.5,0-1,0.2-1.3,0.5L31.3,72.2c-0.5,0.4-0.7,1-0.7,1.6l0.6,9.3l-0.6,0.6l-3.6-9.7   c-0.2-0.5-0.6-1-1.2-1.2l-9.7-3.6l0.6-0.6l9.3,0.6c0.6,0,1.2-0.2,1.6-0.7L47,47.3c0.4-0.5,0.6-1.1,0.5-1.8   c-0.1-0.6-0.6-1.2-1.2-1.4L13.2,30.5L16.8,26.9z"/></g></svg>
