<svg xmlns="http://www.w3.org/2000/svg" xmlns:xlink="http://www.w3.org/1999/xlink" version="1.1" x="0px" y="0px" viewBox="0 0 100 125" enable-background="new 0 0 100 100" xml:space="preserve"><path d="M89.6,40.3C89,35,87.7,29.5,85.2,23.5C83,18.3,78.1,15,72.5,15h-45c-5.6,0-10.6,3.3-12.7,8.5c-2.5,6-3.8,11.5-4.4,16.8  C7.3,41.2,5,44.1,5,47.5v20C5,68.9,6.1,70,7.5,70H10v12.5c0,1.4,1.1,2.5,2.5,2.5h10c1.4,0,2.5-1.1,2.5-2.5V70h50v12.5  c0,1.4,1.1,2.5,2.5,2.5h10c1.4,0,2.5-1.1,2.5-2.5V70h2.5c1.4,0,2.5-1.1,2.5-2.5v-20C95,44.1,92.7,41.2,89.6,40.3z M19.4,25.4  c1.4-3.3,4.5-5.4,8.1-5.4h45c3.5,0,6.7,2.1,8.1,5.4c2.2,5.2,3.4,9.9,4,14.6h-4.8c-1.2-5.7-6.2-10-12.2-10s-11.1,4.3-12.2,10H15.4  C16.1,35.3,17.3,30.6,19.4,25.4z M74.6,40H60.4c1-2.9,3.8-5,7.1-5S73.5,37.1,74.6,40z M20,80h-5V70h5V80z M85,80h-5V70h5V80z M90,65  h-2.5H85h-7.5h-55H15h-2.5H10V47.5c0-1.4,1.1-2.5,2.5-2.5h75c1.4,0,2.5,1.1,2.5,2.5V65z"/><path d="M22.5,47.5c-4.1,0-7.5,3.4-7.5,7.5s3.4,7.5,7.5,7.5S30,59.1,30,55S26.6,47.5,22.5,47.5z M22.5,57.5c-1.4,0-2.5-1.1-2.5-2.5  s1.1-2.5,2.5-2.5S25,53.6,25,55S23.9,57.5,22.5,57.5z"/><path d="M77.5,47.5c-4.1,0-7.5,3.4-7.5,7.5s3.4,7.5,7.5,7.5S85,59.1,85,55S81.6,47.5,77.5,47.5z M77.5,57.5c-1.4,0-2.5-1.1-2.5-2.5  s1.1-2.5,2.5-2.5S80,53.6,80,55S78.9,57.5,77.5,57.5z"/></svg>
