<svg xmlns="http://www.w3.org/2000/svg" xmlns:xlink="http://www.w3.org/1999/xlink" version="1.1" x="0px" y="0px" viewBox="0 0 100 125" xml:space="preserve">
  <g>
    <path d="M83.3,8.8l-1.7,0.1c-1.9,0.1-3.7,0.8-5.2,2L55.9,28.7l-38.4-4.4c-1.6-0.2-3.3,0.3-4.5,1.5l-4,4c-1,1-1.5,2.4-1.2,3.8   c0.2,1.4,1.1,2.6,2.3,3.2l25.7,13.1L24.8,62.7l-9.7,0.5c-1.2,0.1-2.2,0.6-2.9,1.5l-0.9,1.2c-0.8,1.1-1.1,2.4-0.8,3.7   c0.3,1.3,1.2,2.4,2.3,2.9l10.4,5.1L28.3,88c0.6,1.2,1.7,2,2.9,2.3c1.3,0.3,2.6,0,3.7-0.8l1.2-0.9c0.9-0.7,1.5-1.8,1.5-2.9l0.5-9.7   l12.7-11.1L64,90.6c0.6,1.2,1.8,2.1,3.2,2.3c0.2,0,0.5,0.1,0.7,0.1c1.2,0,2.3-0.5,3.1-1.3l4-4c1.2-1.2,1.7-2.8,1.5-4.4l-4.4-38.4   l17.8-20.5c1.2-1.4,2-3.3,2-5.2l0.1-1.7c0.1-2.3-0.8-4.6-2.4-6.2C87.9,9.6,85.6,8.7,83.3,8.8z M87.9,19c0,1-0.4,2-1.1,2.7   L68.5,42.9c-0.4,0.4-0.5,1-0.5,1.5l4.5,39.3c0.1,0.4-0.1,0.8-0.4,1.1l-4,4C68.1,89,67.9,89,67.9,89c-0.1,0-0.2-0.1-0.3-0.2   L53.3,60.8c-0.3-0.5-0.8-0.9-1.4-1.1c-0.6-0.1-1.2,0.1-1.7,0.5L34.9,73.5c-0.4,0.4-0.7,0.9-0.7,1.4l-0.5,10.5l-1.2,0.9   c-0.1,0.1-0.3,0.1-0.3,0.1c-0.1,0-0.2-0.1-0.3-0.2l-5.4-11c-0.2-0.4-0.5-0.7-0.9-0.9l-11-5.4c-0.1-0.1-0.2-0.2-0.2-0.3   c0-0.1,0-0.2,0.1-0.3l0.8-1.1l10.6-0.5c0.5,0,1.1-0.3,1.4-0.7l13.3-15.3c0.4-0.5,0.6-1.1,0.5-1.7c-0.1-0.6-0.5-1.1-1.1-1.4L12,33.2   c-0.2-0.1-0.2-0.2-0.2-0.3s0-0.2,0.1-0.3l4-4c0.3-0.3,0.7-0.4,1.2-0.4l39.3,4.5c0.6,0.1,1.1-0.1,1.5-0.5L79,13.9   c0.7-0.7,1.7-1,2.7-1.1l1.7-0.1c1.2,0,2.4,0.4,3.2,1.3c0.9,0.9,1.3,2,1.3,3.3L87.9,19z"/>
  </g>
</svg>
