<svg xmlns="http://www.w3.org/2000/svg" xmlns:xlink="http://www.w3.org/1999/xlink" version="1.1" x="0px" y="0px" viewBox="0 0 48 60" enable-background="new 0 0 48 48" xml:space="preserve">
<g>
<g>
<path d="M30.2,31.1L26,29.6l6.1-9.6c-2.9-1.3-6-3.1-8.4-4.6l-3.7,3.5l-2.8-1l3-4.7c0.4-0.6,0.7-1.2,0.9-1.8c0.2-0.6,0.4-1.3,0.5-2    l0.7-5.6l2.8,1l0.6,5.1c2.8,0.3,6.3,0.9,9.4,1.8l1.4-11.3l4.1,1.5l1.4,12.7c2.2,1.2,6.1,3.8,5.2,6.3c-0.3,0.9-1.3,1.9-4.3,1.9    c-1.1,0-2.4-0.1-3.8-0.4L30.2,31.1z M29.1,28.6l0.6,0.2l9-8.7l0.5,0.1c1.4,0.3,2.8,0.5,3.9,0.5c1.8,0,2.3-0.4,2.4-0.6    c0.1-0.3-0.8-2-4.7-4.1l-0.5-0.2L38.9,3.3l-0.6-0.2l-1.4,11.2l-1.1-0.4c-3.4-1.1-7.9-1.8-10.9-2.1l-0.8-0.1l-0.3-2.5l0,0.3    c-0.1,0.8-0.3,1.6-0.6,2.4c-0.3,0.8-0.6,1.5-1.1,2.2l-0.2,0.3l1.8-1.7l0.7,0.4c2.6,1.7,6.5,4,9.8,5.4l1.1,0.5L29.1,28.6z"/>
</g>
<g>
<path d="M16.4,47.7C6.2,46.1-0.8,36.6,0.7,26.4c0.7-5,3.4-9.3,7.4-12.3c4-3,8.9-4.2,13.8-3.4l-0.3,2c-4.4-0.7-8.7,0.4-12.3,3.1    c-3.6,2.7-5.9,6.6-6.6,11c-1.4,9.1,4.9,17.6,14,19L16.4,47.7z"/>
</g>
</g>
</svg>
