<?xml version="1.0" encoding="UTF-8"?>
<svg width="96px" height="63px" viewBox="0 0 96 63" version="1.1" xmlns="http://www.w3.org/2000/svg" xmlns:xlink="http://www.w3.org/1999/xlink">
    <!-- Generator: Sketch 53 (72520) - https://sketchapp.com -->
    <title>bevolking-icon</title>
    <desc>Created with Sketch.</desc>
    <g id="bevolking-icon" stroke="none" stroke-width="1" fill="none" fill-rule="evenodd">
        <path d="M86.0444444,21.3962264 C87.8222222,19.7320755 88.8888889,17.4735849 88.8888889,14.8584906 C88.8888889,9.98490566 84.8592593,5.94339623 80,5.94339623 C75.1407407,5.94339623 71.1111111,9.98490566 71.1111111,14.8584906 C71.1111111,17.4735849 72.1777778,19.7320755 73.9555556,21.3962264 C68.7407407,23.5358491 64.8296296,28.409434 64.1185185,34.2339623 C61.7481481,32.8075472 59.1407407,31.7377358 56.5333333,30.9056604 C61.3925926,28.0528302 64.5925926,22.7037736 64.5925926,16.6415094 C64.5925926,7.48867925 57.1259259,0 48,0 C38.8740741,0 31.4074074,7.48867925 31.4074074,16.6415094 C31.4074074,22.7037736 34.6074074,27.9339623 39.4666667,30.9056604 C36.7407407,31.6188679 34.1333333,32.8075472 31.8814815,34.2339623 C31.1703704,28.409434 27.2592593,23.5358491 22.0444444,21.3962264 C23.8222222,19.7320755 24.8888889,17.4735849 24.8888889,14.8584906 C24.8888889,9.98490566 20.8592593,5.94339623 16,5.94339623 C11.1407407,5.94339623 7.11111111,9.98490566 7.11111111,14.8584906 C7.11111111,17.4735849 8.17777778,19.7320755 9.95555556,21.3962264 C4.14814815,23.7735849 0,29.5981132 0,36.254717 C0,37.2056604 0.82962963,38.0377358 1.77777778,38.0377358 C2.72592593,38.0377358 3.55555556,37.2056604 3.55555556,36.254717 C3.55555556,29.3603774 9.12592593,23.7735849 16,23.7735849 C22.8740741,23.7735849 28.4444444,29.3603774 28.4444444,36.254717 C28.4444444,36.3735849 28.4444444,36.4924528 28.4444444,36.6113208 C21.2148148,42.4358491 16.5925926,51.2320755 16.5925926,61.2169811 C16.5925926,62.1679245 17.4222222,63 18.3703704,63 C19.3185185,63 20.1481481,62.1679245 20.1481481,61.2169811 C20.1481481,45.7641509 32.5925926,33.2830189 48,33.2830189 C63.4074074,33.2830189 75.8518519,45.7641509 75.8518519,61.2169811 C75.8518519,62.1679245 76.6814815,63 77.6296296,63 C78.5777778,63 79.4074074,62.1679245 79.4074074,61.2169811 C79.4074074,51.2320755 74.7851852,42.3169811 67.5555556,36.6113208 C67.5555556,36.4924528 67.5555556,36.3735849 67.5555556,36.254717 C67.5555556,29.3603774 73.1259259,23.7735849 80,23.7735849 C86.8740741,23.7735849 92.4444444,29.3603774 92.4444444,36.254717 C92.4444444,37.2056604 93.2740741,38.0377358 94.2222222,38.0377358 C95.1703704,38.0377358 96,37.2056604 96,36.254717 C96,29.5981132 91.8518519,23.7735849 86.0444444,21.3962264 Z M10.5,15 C10.5,12.0833333 12.8333333,9.75 15.75,9.75 C18.6666667,9.75 21,12.0833333 21,15 C21,17.9166667 18.6666667,20.25 15.75,20.25 C12.8333333,20.25 10.5,17.9166667 10.5,15 Z M35.25,16.875 C35.25,9.59659091 41.0965909,3.75 48.375,3.75 C55.6534091,3.75 61.5,9.59659091 61.5,16.875 C61.5,24.1534091 55.6534091,30 48.375,30 C41.0965909,30 35.25,24.1534091 35.25,16.875 Z M75,15 C75,12.0833333 77.3333333,9.75 80.25,9.75 C83.1666667,9.75 85.5,12.0833333 85.5,15 C85.5,17.9166667 83.1666667,20.25 80.25,20.25 C77.3333333,20.25 75,17.9166667 75,15 Z" id="Shape" fill="#FFFFFF" fill-rule="nonzero"></path>
    </g>
</svg>