<?xml version="1.0" encoding="UTF-8"?>
<svg xmlns="http://www.w3.org/2000/svg" xmlns:xlink="http://www.w3.org/1999/xlink" width="68px" height="80px" viewBox="0 0 64 80" x="0px" y="0px">
<g id="bevolking-icon" stroke-width="1" fill="#FFFFFF" fill-rule="evenodd">
<path d="M12.9,26.93a1.24,1.24,0,0,0,0,1.66,1.1,1.1,0,0,0,1.64,0,1.24,1.24,0,0,0,0-1.66A1.13,1.13,0,0,0,12.9,26.93Z"/>
<path d="M60.39,40c-1.06-.57-5.85-3.08-8.76-3.63h1.69a4.6,4.6,0,0,0,3.73-7.25A29.48,29.48,0,0,0,42.12,18.51V16h0l7.16-3.93a1,1,0,0,0-.11-1.81L41.49,7.19a1,1,0,0,0-1.37.93v9.81a35,35,0,0,0-8.78-1.12c-10.79,0-20.83,5-26.2,13a4.25,4.25,0,0,0-.23,4.37A4.06,4.06,0,0,0,8.54,36.4h2.13a47.7,47.7,0,0,0-7.11,3.67,1,1,0,1,0,1.05,1.7c2.46-1.52,6.92-3.92,8.44-3.92h0c.84,0,2.57,1.07,4,1.91a24.57,24.57,0,0,0,3.26,1.77H10.71A3.21,3.21,0,0,0,7.5,44.74v1.63A3.17,3.17,0,0,0,8,48H7.53a3.13,3.13,0,0,0-3.12,3.13v2.63a3.13,3.13,0,0,0,3.13,3.13H54.79a3.13,3.13,0,0,0,3.13-3.12V51.12A3.12,3.12,0,0,0,55,48a3.17,3.17,0,0,0,.47-1.64V44.74a3.21,3.21,0,0,0-3.21-3.21H42.67A15.52,15.52,0,0,0,47.4,39.6a8.83,8.83,0,0,1,3.19-1.31c1.51-.08,6.24,2.11,8.86,3.51A1,1,0,1,0,60.39,40ZM42.12,9.6l4.34,1.73-4.34,2.39ZM6.68,33.28A2.23,2.23,0,0,1,6.8,31c5-7.49,14.41-12.15,24.54-12.15A33,33,0,0,1,40.12,20v7.33a1,1,0,1,0,2,0v-6.7a27.35,27.35,0,0,1,13.31,9.7,2.6,2.6,0,0,1-2.11,4.08H8.54A2.09,2.09,0,0,1,6.68,33.28Zm8.45,3.12H30c-.91.38-1.95.9-3.08,1.47-1.74.88-4.14,2.09-5,2s-2.42-1-3.82-1.87A29.27,29.27,0,0,0,15.12,36.4ZM55.91,51.12v2.63a1.13,1.13,0,0,1-1.12,1.13H7.53a1.13,1.13,0,0,1-1.12-1.12V51.12A1.13,1.13,0,0,1,7.53,50H54.79A1.13,1.13,0,0,1,55.91,51.12Zm-2.5-6.38v1.63a1.21,1.21,0,0,1-1.21,1.21H10.71A1.21,1.21,0,0,1,9.5,46.37V44.74a1.21,1.21,0,0,1,1.21-1.21h41.5A1.21,1.21,0,0,1,53.42,44.74ZM23.75,41.53a36.93,36.93,0,0,0,4.06-1.87,19.07,19.07,0,0,1,4.24-1.82c.88-.09,2.78,1,4.31,1.8a18.93,18.93,0,0,0,4.08,1.89Zm22.68-3.68a11.52,11.52,0,0,1-5,1.81c-.91,0-2.62-.92-4.16-1.77A32.27,32.27,0,0,0,34.4,36.4H49.73A12.84,12.84,0,0,0,46.43,37.85Z"/>
<path d="M22.09,22.11h0a1.12,1.12,0,0,0-.82.37,1.24,1.24,0,0,0,0,1.66,1.12,1.12,0,0,0,.82.37h0a1.11,1.11,0,0,0,.82-.37,1.24,1.24,0,0,0,0-1.66A1.11,1.11,0,0,0,22.09,22.11Zm-.45.7Z"/>
<path d="M31.16,20.72h0a1.11,1.11,0,0,0-.82.37,1.24,1.24,0,0,0,0,1.66,1.12,1.12,0,0,0,.82.37h0a1.11,1.11,0,0,0,.82-.37,1.24,1.24,0,0,0,0-1.66A1.11,1.11,0,0,0,31.16,20.72Z"/>
<path d="M20.89,28h0a1.12,1.12,0,0,0-.82.37,1.24,1.24,0,0,0,0,1.66,1.12,1.12,0,0,0,.82.37h0a1.12,1.12,0,0,0,.82-.37,1.24,1.24,0,0,0,0-1.66A1.12,1.12,0,0,0,20.89,28Z"/>
<path d="M27.25,25.78a1.24,1.24,0,0,0,0,1.66,1.1,1.1,0,0,0,1.64,0,1.24,1.24,0,0,0,0-1.66A1.13,1.13,0,0,0,27.25,25.78Z"/>
<path d="M48.17,27.25h0a1.12,1.12,0,0,0-.82.37,1.24,1.24,0,0,0,0,1.66h0a1.1,1.1,0,0,0,.82.37h0a1.1,1.1,0,0,0,.82-.37,1.24,1.24,0,0,0,0-1.66A1.1,1.1,0,0,0,48.17,27.25Zm-.45.7Z"/>
</g>
</svg>
