<?xml version="1.0" encoding="UTF-8"?>
<svg width="43px" height="43px" viewBox="0 0 43 43" version="1.1" xmlns="http://www.w3.org/2000/svg" xmlns:xlink="http://www.w3.org/1999/xlink">
    <g id="logo-tabblad" stroke="none" stroke-width="1" fill="none" fill-rule="evenodd">
        <g id="Logo" fill="#28C0C8" fill-rule="nonzero">
            <path d="M9.18,22.68 C7.11818182,22.68 5.4,24.3981818 5.4,26.46 C5.4,28.5218182 7.11818182,30.24 9.18,30.24 C11.2418182,30.24 12.96,28.5218182 12.96,26.46 C12.96,24.3981818 11.2990909,22.68 9.18,22.68 Z M9.18,27.6054545 C8.55,27.6054545 8.03454545,27.09 8.03454545,26.46 C8.03454545,25.83 8.55,25.3145455 9.18,25.3145455 C9.81,25.3145455 10.3254545,25.83 10.3254545,26.46 C10.3254545,27.09 9.81,27.6054545 9.18,27.6054545 Z" id="Shape"></path>
            <path d="M37.7105625,33.301125 L23.95575,33.301125 L23.95575,33.301125 C23.297625,33.301125 22.6395,32.8404375 22.6395,32.1823125 C22.6395,31.458375 23.3634375,31.0635 23.95575,31.0635 L29.9446875,31.0635 C31.1293125,31.0635 32.1823125,30.6028125 32.9720625,29.878875 C33.827625,29.089125 34.2883125,28.036125 34.2883125,26.9173125 L34.2883125,23.7583125 C35.802,22.5736875 38.039625,20.401875 39.619125,17.5719375 C40.935375,15.2026875 41.988375,12.37275 41.988375,9.345375 C42.12,4.212 37.908,0 32.774625,0 C27.64125,0 23.42925,4.212 23.42925,9.345375 C23.42925,12.37275 24.48225,15.2026875 25.7985,17.5719375 C27.4438125,20.5335 29.8130625,22.771125 31.3925625,23.8899375 L31.3925625,26.8515 C31.3925625,27.11475 31.2609375,27.4438125 31.0635,27.64125 C30.80025,27.8386875 30.4711875,28.036125 30.0763125,28.036125 L24.7455,28.036125 L24.0215625,28.036125 C21.718125,28.036125 19.612125,29.8130625 19.612125,32.1823125 C19.612125,34.48575 21.5865,36.2626875 23.824125,36.3285 C28.3651875,36.460125 33.1695,36.3285 37.7105625,36.3285 C38.4345,36.3285 39.0268125,36.9208125 39.0268125,37.64475 C39.0268125,38.3686875 38.4345,38.961 37.7105625,38.961 L13.3599375,38.961 C14.4129375,37.8421875 15.4659375,36.460125 16.3873125,34.9464375 C17.7035625,32.5771875 18.7565625,29.74725 18.7565625,26.719875 C18.7565625,21.5206875 14.5445625,17.3745 9.4111875,17.3745 C4.212,17.4403125 0,21.6523125 0,26.7856875 C0,29.8130625 1.053,32.643 2.36925,35.01225 C4.8043125,39.2900625 8.68725,42.12 9.345375,42.12 L37.7105625,42.12 C40.145625,42.12 42.12,40.145625 42.12,37.7105625 C42.12,35.3413125 40.145625,33.301125 37.7105625,33.301125 Z M28.431,16.1240625 C27.3121875,14.1496875 26.456625,11.84625 26.456625,9.4111875 C26.456625,5.923125 29.2865625,3.0931875 32.774625,3.0931875 C36.2626875,3.0931875 39.092625,5.923125 39.092625,9.4111875 C39.092625,11.84625 38.2370625,14.2155 37.11825,16.1240625 C35.2096875,19.4146875 33.037875,21.6523125 32.774625,21.6523125 C32.511375,21.6523125 30.27375,19.4146875 28.431,16.1240625 Z M9.345375,39.092625 C9.082125,39.092625 6.9103125,36.855 5.00175,33.564375 C3.8829375,31.59 3.027375,29.2865625 3.027375,26.8515 C3.027375,23.3634375 5.8573125,20.5335 9.345375,20.5335 C12.8334375,20.5335 15.663375,23.3634375 15.663375,26.8515 C15.663375,29.2865625 14.8078125,31.6558125 13.689,33.564375 C11.84625,36.855 9.608625,39.092625 9.345375,39.092625 Z" id="Shape"></path>
            <path d="M32.94,14.04 C35.0018182,14.04 36.72,12.3218182 36.72,10.26 C36.72,8.19818182 35.0018182,6.48 32.94,6.48 C30.8781818,6.48 29.16,8.19818182 29.16,10.26 C29.16,11.2909091 29.5609091,12.2645455 30.2481818,12.9518182 L30.2481818,12.9518182 C30.9354545,13.6390909 31.9090909,14.04 32.94,14.04 Z M32.94,9.17181818 C33.57,9.17181818 34.0854545,9.68727273 34.0854545,10.3172727 C34.0854545,10.9472727 33.57,11.4627273 32.94,11.4627273 C32.31,11.4627273 31.7945455,10.9472727 31.7945455,10.3172727 C31.7945455,9.63 32.31,9.17181818 32.94,9.17181818 Z" id="Shape"></path>
        </g>
    </g>
</svg>
