<svg xmlns="http://www.w3.org/2000/svg" xmlns:xlink="http://www.w3.org/1999/xlink" version="1.1" x="0px" y="0px" viewBox="0 0 100 125" enable-background="new 0 0 100 100" xml:space="preserve"><rect fill="none" width="100" height="100"/><path d="M71.978,95L61.843,78.988h0.916v-4.467h-2.751l-2.484-10.589V62.38h-0.364l-0.384-1.632h0.748V56.28h-2.142  c-1.499-9.65-3.334-34.169-3.883-41.791h1.542v-4.468h-1.708V6.117c0-0.619-0.5-1.117-1.117-1.117c-0.617,0-1.117,0.498-1.117,1.117  v3.905h-1.665v4.468h1.503c-0.549,7.622-2.386,32.141-3.885,41.791h-2.142v4.468h0.748l-0.384,1.632h-0.364v1.553l-2.485,10.589  h-2.75v4.467h0.482L28.022,95h10.77v-1.117c0-5.802,5.126-10.519,11.426-10.519c6.297,0,11.424,4.717,11.424,10.519V95H71.978z   M48.776,74.521l1.439-6.135l1.439,6.135H48.776z M53.95,74.521l-2.325-9.908h3.763l2.326,9.908H53.95z M51.254,39.339H49.18  c0.375-4.114,0.731-8.337,1.039-12.189C50.526,31.002,50.879,35.226,51.254,39.339z M48.973,41.573h2.489  c0.543,5.759,1.119,11.112,1.662,14.707h-5.812C47.855,52.686,48.432,47.332,48.973,41.573z M45.954,60.748h8.527l0.382,1.632  h-9.291L45.954,60.748z M45.046,64.613h3.761l-2.323,9.908h-3.763L45.046,64.613z M50.218,81.131  c-7.129,0-12.999,5.122-13.608,11.636h-4.53l8.723-13.778h18.396l8.721,13.778h-4.097C63.215,86.253,57.345,81.131,50.218,81.131z"/></svg>
