<svg xmlns="http://www.w3.org/2000/svg" xmlns:xlink="http://www.w3.org/1999/xlink" viewBox="0 0 100 125" version="1.1" x="0px" y="0px">
<path d="M60.0388427,75.704 L58.9806737,75.704 C58.3421715,75.704 57.7853624,75.1911062 57.7333628,74.5584197 C57.7333628,74.5584197 57.6229304,74.6938939 57.7960503,72.248 C57.9851172,69.5768018 58.6238666,67.2017344 59.6865671,64.9502447 C60.6532221,62.902242 61.6455886,61.430237 63.8312376,58.550451 C63.9114976,58.4447129 63.9114976,58.4447129 63.9915777,58.3392164 C66.0930269,55.570557 67.0038286,54.217761 67.8626601,52.3874901 C68.9727011,50.0218619 69.544,47.4948746 69.544,44.456 C69.544,33.4809975 60.6470025,24.584 49.672,24.584 C38.6969975,24.584 29.8,33.4809975 29.8,44.456 C29.8,47.4890814 30.3840331,50.0108874 31.5194172,52.3729142 C32.3986729,54.2020974 33.3317015,55.5549112 35.4841672,58.323264 C35.5662008,58.4287608 35.6159129,58.4926898 35.648418,58.5344984 C37.8876072,61.4145826 38.9041639,62.8865675 39.8949086,64.9356307 C40.9853673,67.1909229 41.6396758,69.5710405 41.8345954,72.248 C42.008065,74.6303726 41.9085027,74.5548192 41.9085027,74.5548192 C41.8834771,75.1908009 41.3189962,75.704 40.6829724,75.704 L39.591623,75.704 C38.955566,75.704 38.44,75.1879629 38.44,74.551399 L38.44,73.976 C38.44,71.1036418 37.8786465,68.7049695 36.7835193,66.4400218 C35.9308103,64.6764447 35.0151552,63.3505664 32.9200145,60.65576 C32.8876239,60.6140986 32.8380334,60.550326 32.7558328,60.4446144 C30.4577451,57.4889726 29.4227265,55.9882818 28.4045828,53.8701594 C27.0464178,51.0446643 26.344,48.0116829 26.344,44.456 C26.344,31.5723014 36.7883014,21.128 49.672,21.128 C62.5556986,21.128 73,31.5723014 73,44.456 C73,48.0058896 72.3154778,51.0336897 70.9913399,53.8555834 C69.9979482,55.9726182 68.9875609,57.4733267 66.7444223,60.428662 C66.6641786,60.5343739 66.6641786,60.5343739 66.5841498,60.6398074 C64.5386671,63.334912 63.6448269,64.6607702 62.8119199,66.4254077 C61.741173,68.6939448 61.192,71.0978044 61.192,73.976 L61.192,74.551399 C61.192,75.1878837 60.6757139,75.704 60.0388427,75.704 Z M39.88,85.782798 C39.88,85.1472298 40.3962663,84.632 41.0319542,84.632 L58.3120458,84.632 C58.9482526,84.632 59.464,85.147531 59.464,85.782798 L59.464,86.937202 C59.464,87.5727702 58.9477337,88.088 58.3120458,88.088 L41.0319542,88.088 C40.3957474,88.088 39.88,87.572469 39.88,86.937202 L39.88,85.782798 Z M38.728,79.446798 C38.728,78.8112298 39.2435201,78.296 39.8813065,78.296 L59.7506935,78.296 C60.3876471,78.296 60.904,78.811531 60.904,79.446798 L60.904,80.601202 C60.904,81.2367702 60.3884799,81.752 59.7506935,81.752 L39.8813065,81.752 C39.2443529,81.752 38.728,81.236469 38.728,80.601202 L38.728,79.446798 Z M49.672,95 C46.0630788,95 42.616,93.3689281 42.616,90.968 L56.728,90.968 C56.728,93.3689281 53.2809212,95 49.672,95 Z M49.0959723,32.936 C42.8933936,32.936015 37.8650878,37.9636592 37.864,44.1976247 C37.864,44.8334022 37.348469,45.3488018 36.713202,45.3488018 L35.558798,45.3488018 C34.9232298,45.3488018 34.408,44.8316894 34.408,44.1961513 L34.4080308,44.1376194 C34.4244043,36.049926 40.977474,29.4966842 49.096823,29.48 C49.7324687,29.48 50.248,29.995531 50.248,30.630798 L50.248,31.785202 C50.248,32.420761 49.7322093,32.935985 49.0959723,32.936 Z M47.8,6.7277755 C47.8,5.77355144 48.5734421,5 49.528,5 C50.482348,5 51.256,5.77374769 51.256,6.7277755 L51.256,14.7922245 C51.256,15.7464486 50.4825579,16.52 49.528,16.52 C48.573652,16.52 47.8,15.7462523 47.8,14.7922245 L47.8,6.7277755 Z M87.3282245,42.8 C88.2824486,42.8 89.056,43.5734421 89.056,44.528 C89.056,45.482348 88.2822523,46.256 87.3282245,46.256 L79.2637755,46.256 C78.3095514,46.256 77.536,45.4825579 77.536,44.528 C77.536,43.573652 78.3097477,42.8 79.2637755,42.8 L87.3282245,42.8 Z M11.7277755,46.256 C10.7735514,46.256 10,45.4825579 10,44.528 C10,43.573652 10.7737477,42.8 11.7277755,42.8 L19.7922245,42.8 C20.7464486,42.8 21.52,43.5734421 21.52,44.528 C21.52,45.482348 20.7462523,46.256 19.7922245,46.256 L11.7277755,46.256 Z M81.3999547,24.1313958 C82.226337,23.6542838 83.2829732,23.9373286 83.7602522,24.764 C84.2374262,25.5904897 83.954167,26.6473657 83.1279547,27.1243796 L76.143937,31.1566042 C75.3175547,31.6337162 74.2609185,31.3506714 73.7836395,30.524 C73.3064655,29.6975103 73.5897247,28.6406343 74.415937,28.1636204 L81.3999547,24.1313958 Z M15.9280453,27.1243796 C15.101663,26.6472676 14.8184689,25.5906714 15.2957478,24.764 C15.7729219,23.9375103 16.829833,23.6543819 17.6560453,24.1313958 L24.640063,28.1636204 C25.4664453,28.6407324 25.7496394,29.6973286 25.2723605,30.524 C24.7951865,31.3504897 23.7382753,31.6336181 22.912063,31.1566042 L15.9280453,27.1243796 Z M66.9316204,10.9280453 C67.4087324,10.101663 68.4653286,9.8184689 69.292,10.2957478 C70.1184897,10.7729219 70.4016181,11.829833 69.9246042,12.6560453 L65.8923796,19.640063 C65.4152676,20.4664453 64.3586714,20.7496394 63.532,20.2723605 C62.7055103,19.7951865 62.4223819,18.7382753 62.8993958,17.912063 L66.9316204,10.9280453 Z M29.1313958,12.6560453 C28.6542838,11.829663 28.9373286,10.7730268 29.764,10.2957478 C30.5904897,9.81857382 31.6473657,10.101833 32.1243796,10.9280453 L36.1566042,17.912063 C36.6337162,18.7384453 36.3506714,19.7950815 35.524,20.2723605 C34.6975103,20.7495345 33.6406343,20.4662753 33.1636204,19.640063 L29.1313958,12.6560453 Z M83.1279547,61.9316204 C83.954337,62.4087324 84.2375311,63.4653286 83.7602522,64.292 C83.2830781,65.1184897 82.226167,65.4016181 81.3999547,64.9246042 L74.415937,60.8923796 C73.5895547,60.4152676 73.3063606,59.3586714 73.7836395,58.532 C74.2608135,57.7055103 75.3177247,57.4223819 76.143937,57.8993958 L83.1279547,61.9316204 Z M17.6560453,64.9246042 C16.829663,65.4017162 15.7730268,65.1186714 15.2957478,64.292 C14.8185738,63.4655103 15.101833,62.4086343 15.9280453,61.9316204 L22.912063,57.8993958 C23.7384453,57.4222838 24.7950815,57.7053286 25.2723605,58.532 C25.7495345,59.3584897 25.4662753,60.4153657 24.640063,60.8923796 L17.6560453,64.9246042 Z" fill-rule="nonzero"/>
</svg>
