<svg xmlns="http://www.w3.org/2000/svg" xmlns:xlink="http://www.w3.org/1999/xlink" version="1.1" x="0px" y="0px" viewBox="0 0 48 60" style="enable-background:new 0 0 48 48;" xml:space="preserve">
<path d="M40,16c0-8.8-7.2-16-16-16S8,7.2,8,16c0,5.8,3.7,10.1,5.3,11.7c2.4,2.4,3.4,4.1,3.7,6.3h-1v2h1v2h-1v2h1v2  c0,0.5,0.2,1,0.6,1.4C18,43.8,18.5,44,19,44h1v2c0,0.5,0.2,1,0.6,1.4C21,47.8,21.5,48,22,48h4c0.5,0,1-0.2,1.4-0.6S28,46.5,28,46v-2  h1c0.5,0,1-0.2,1.4-0.6S31,42.5,31,42v-2h1v-2h-1v-2h1v-2h-1c0.2-2.2,1.2-3.8,3.7-6.3C36.3,26.1,40,21.8,40,16z M26,46h-4v-2h4V46z   M29,43v-1h0L29,43z M29,34h-2V19c0-0.1,0-0.3-0.1-0.4l-2-5C24.8,13.2,24.4,13,24,13s-0.8,0.2-0.9,0.6l-2,5c0,0.1-0.1,0.2-0.1,0.4  v15v1v1h8l0,2h-8v2h8l0,2H19v-7c0-3.3-1.1-5.5-4.3-8.7C13.3,24.9,10,21,10,16c0-7.7,6.3-14,14-14s14,6.3,14,14c0,5-3.3,8.9-4.7,10.3  C30.5,29.1,29.3,31.3,29,34z M25,34h-2V19.2l1-2.5l1,2.5V34z M31.8,23.8l-1.4-1.4c3.5-3.5,3.5-9.2,0-12.7C28.7,7.9,26.4,7,24,7  c-2.4,0-4.7,0.9-6.4,2.6S15,13.6,15,16c0,2.4,0.9,4.7,2.6,6.4l-1.4,1.4C14.1,21.7,13,18.9,13,16s1.1-5.7,3.2-7.8  C18.3,6.1,21.1,5,24,5c0,0,0,0,0,0c2.9,0,5.7,1.1,7.8,3.2C36.1,12.5,36.1,19.5,31.8,23.8z M6,17H2v-2h4V17z M6.4,12.3l-3.9-1L3,9.3  l3.9,1L6.4,12.3z M7.9,7.9l-3.5-2l1-1.7l3.5,2L7.9,7.9z M6.9,21.6l-3.9,1l-0.5-1.9l3.9-1L6.9,21.6z M7.9,24.1l1,1.7l-3.5,2l-1-1.7  L7.9,24.1z M46,15v2h-4v-2H46z M41.1,10.4l3.9-1l0.5,1.9l-3.9,1L41.1,10.4z M40.1,7.9l-1-1.7l3.5-2l1,1.7L40.1,7.9z M41.6,19.7  l3.9,1L45,22.7l-3.9-1L41.6,19.7z M40.1,24.1l3.5,2l-1,1.7l-3.5-2L40.1,24.1z"/>
</svg>
