<?xml version="1.0" encoding="UTF-8"?>
<svg width="96px" height="54px" viewBox="0 0 96 54" version="1.1" xmlns="http://www.w3.org/2000/svg" xmlns:xlink="http://www.w3.org/1999/xlink">
    <!-- Generator: Sketch 53 (72520) - https://sketchapp.com -->
    <title>valuta-icon</title>
    <desc>Created with Sketch.</desc>
    <g id="valuta-icon" stroke="none" stroke-width="1" fill="none" fill-rule="evenodd">
        <g id="Group-2" fill="#FFFFFF" fill-rule="nonzero">
            <path d="M94.7225549,53.25 L1.27744511,53.25 C0.574850299,53.25 0,52.6765058 0,51.9755684 L0,1.27443159 C0,0.573494216 0.574850299,0 1.27744511,0 L94.7225549,0 C95.4251497,0 96,0.573494216 96,1.27443159 L96,51.9755684 C96,52.6765058 95.4464405,53.25 94.7225549,53.25 Z M2.55489022,50.7011368 L93.4451098,50.7011368 L93.4451098,2.54886318 L2.55489022,2.54886318 L2.55489022,50.7011368 Z" id="Shape"></path>
            <path d="M79.3485222,48.75 L17.4014778,48.75 C16.700431,48.75 16.1268473,48.1782353 16.1268473,47.4794118 C16.1268473,42.2064706 11.8143473,37.9076471 6.52463054,37.9076471 C5.82358374,37.9076471 5.25,37.3358824 5.25,36.6370588 L5.25,15.8629412 C5.25,15.1641176 5.82358374,14.5923529 6.52463054,14.5923529 C11.8143473,14.5923529 16.1268473,10.2935294 16.1268473,5.02058824 C16.1268473,4.32176471 16.700431,3.75 17.4014778,3.75 L79.3485222,3.75 C80.049569,3.75 80.6231527,4.32176471 80.6231527,5.02058824 C80.6231527,10.2935294 84.9356527,14.5923529 90.2253695,14.5923529 C90.9264163,14.5923529 91.5,15.1641176 91.5,15.8629412 L91.5,36.6370588 C91.5,37.3358824 90.9264163,37.9076471 90.2253695,37.9076471 C84.9356527,37.9076471 80.6231527,42.2064706 80.6231527,47.4794118 C80.6231527,48.1782353 80.049569,48.75 79.3485222,48.75 Z M18.591133,46.2088235 L78.1376232,46.2088235 C78.7324507,40.5335294 83.2573892,36.0229412 88.9507389,35.43 L88.9507389,17.07 C83.2573892,16.4770588 78.7324507,11.9664706 78.1376232,6.29117647 L18.591133,6.29117647 C17.9963054,11.9664706 13.471367,16.4770588 7.77801724,17.07 L7.77801724,35.43 C13.471367,36.0229412 17.9963054,40.5335294 18.591133,46.2088235 Z" id="Shape"></path>
            <path d="M48.3643809,45.75 C37.8302332,45.75 29.25,37.1745283 29.25,26.625 C29.25,16.0754717 37.8302332,7.5 48.3643809,7.5 C58.9197668,7.5 67.5,16.0754717 67.5,26.625 C67.5,37.1745283 58.9197668,45.75 48.3643809,45.75 Z M48.3643809,10.0683962 C39.2319545,10.0683962 31.7985841,17.4976415 31.7985841,26.6462264 C31.7985841,35.7948113 39.2319545,43.2240566 48.3643809,43.2240566 C57.4968073,43.2240566 64.9514159,35.7948113 64.9514159,26.6462264 C64.9514159,17.4976415 57.5180455,10.0683962 48.3643809,10.0683962 Z" id="Shape"></path>
            <path d="M47.7221314,39.75 C46.1665577,39.75 44.6536024,39.3892482 43.4176672,38.7526273 C42.4587519,38.2645513 41.6276919,37.4581649 40.9244874,36.3971302 C40.2639013,35.3360954 39.8590259,34.0628537 39.7524798,32.577405 C39.7098613,31.8771221 40.2212828,31.2617219 40.9244874,31.2192805 C41.6276919,31.1556184 42.2456596,31.6861358 42.288278,32.3864188 C42.3735149,33.4686742 42.6292257,34.317502 43.0767195,35.0390057 C43.5029041,35.7180679 44.0143256,36.2061439 44.5683655,36.5032336 C46.6353607,37.5642684 49.9809097,37.5006063 51.685648,35.7392886 C52.5380172,34.8480194 52.9428925,33.7445432 52.9428925,32.3651981 C52.9428925,31.7497979 52.8363464,31.1980598 52.6445633,30.6887631 C52.4527803,30.1794665 52.1757603,29.7762732 51.8348126,29.4155214 C51.8348126,29.4155214 51.8135034,29.3943007 51.8135034,29.3943007 C51.4512465,29.0335489 50.9824435,28.7152385 50.3431666,28.4393694 C49.4268697,28.0361762 48.5105729,27.8027486 47.5516576,27.5481002 C46.1665577,27.1873484 44.7175301,26.8053759 43.1619564,25.9353274 C42.1604226,25.3835893 41.3932904,24.6196443 40.8605597,23.6222716 C40.3278289,22.6673403 40.0721182,21.5850849 40.0721182,20.3967259 C40.0721182,18.2958771 40.8392504,16.5345594 42.3522057,15.1976556 C43.588141,14.1154002 45.4633531,13.5 47.4877299,13.5 C49.4907974,13.5 51.3233911,14.0729588 52.5380172,15.0915521 C53.8378801,16.1738076 54.6476308,17.680477 54.9033416,19.5478981 C55.0098877,20.2481811 54.5197755,20.8848019 53.8165709,20.9909054 C53.1133664,21.0970089 52.4740895,20.6089329 52.3675433,19.90865 C52.1970695,18.6566289 51.7069572,17.7229184 50.8972065,17.0438561 C50.1513835,16.4072352 48.8728298,16.0464834 47.4877299,16.0464834 C46.10263,16.0464834 44.7814578,16.4496766 44.0356348,17.1075182 C43.0767195,17.956346 42.6079165,19.0173808 42.6079165,20.3755053 C42.6079165,21.1394503 42.7570811,21.7972918 43.0767195,22.3914713 C43.3750487,22.9432094 43.8012333,23.3676233 44.3765825,23.6859337 C45.6551362,24.4074373 46.8910715,24.7257478 48.1909345,25.0652789 C49.2137774,25.3411479 50.2579297,25.617017 51.3660096,26.0838723 C52.2823064,26.4870655 53.0281294,26.9751415 53.6247878,27.5693209 C54.2427555,28.1635004 54.7115585,28.885004 55.031197,29.7338319 C55.3508354,30.5402183 55.5,31.4102668 55.5,32.3439774 C55.5,34.3599434 54.8394139,36.1000404 53.5395509,37.4581649 C52.0479049,39.0497171 49.8530543,39.75 47.7221314,39.75 Z" id="Path"></path>
            <path d="M48.375,42 C47.75625,42 47.25,41.4328893 47.25,40.7397541 L47.25,12.5102459 C47.25,11.8171107 47.75625,11.25 48.375,11.25 C48.99375,11.25 49.5,11.8171107 49.5,12.5102459 L49.5,40.7397541 C49.5,41.4328893 48.99375,42 48.375,42 Z" id="Path"></path>
        </g>
    </g>
</svg>