<?xml version="1.0" encoding="UTF-8"?>
<svg width="68px" height="68px" viewBox="0 0 68 68" version="1.1" xmlns="http://www.w3.org/2000/svg" xmlns:xlink="http://www.w3.org/1999/xlink">
    <!-- Generator: Sketch 53 (72520) - https://sketchapp.com -->
    <title>wereldbol-icon</title>
    <desc>Created with Sketch.</desc>
    <g id="wereldbol-icon" stroke="none" stroke-width="1" fill="none" fill-rule="evenodd">
        <g id="Group" fill="#FFFFFF" fill-rule="nonzero">
            <path d="M32.55,62.175 C32.475,62.175 32.325,62.175 32.25,62.1 C27.225,60.75 27.45,56.025 27.6,52.125 C27.675,50.325 27.75,48.6 27.375,47.325 C27,46.2 26.25,45.525 25.425,44.775 C24.6,44.025 23.7,43.2 23.175,42 C22.5,40.575 22.425,39.075 22.425,37.575 C22.425,36.675 22.425,35.85 22.2,35.1 C21.9,33.825 21.3,33.525 20.1,33 C19.575,32.775 18.975,32.475 18.3,32.1 C17.475,31.575 16.725,30.975 16.05,30.375 C15.6,30 15.15,29.55 14.625,29.25 C13.8,28.65 13.275,28.5 12.3,28.275 C12.075,28.2 11.85,28.2 11.625,28.125 C8.7,27.375 8.025,24.9 7.425,22.95 C6.75,20.7 6.075,17.7 6.3,14.55 C6.375,13.95 6.9,13.425 7.5,13.5 C8.1,13.575 8.625,14.1 8.55,14.7 C8.4,16.95 8.7,19.275 9.6,22.35 C10.2,24.525 10.65,25.5 12.15,25.95 C12.375,26.025 12.6,26.025 12.75,26.1 C13.8,26.4 14.7,26.625 15.9,27.45 C16.425,27.825 16.95,28.275 17.4,28.725 C18.075,29.325 18.675,29.85 19.35,30.225 C19.8,30.525 20.325,30.75 20.85,30.975 C22.2,31.575 23.775,32.25 24.3,34.725 C24.525,35.7 24.525,36.675 24.525,37.65 C24.525,38.925 24.6,40.125 25.05,41.1 C25.425,41.925 26.1,42.525 26.775,43.125 C27.75,44.025 28.875,45 29.4,46.725 C29.925,48.375 29.85,50.4 29.775,52.35 C29.625,55.425 29.7,57.675 30.9,58.95 C30.675,57.525 30.6,55.95 31.425,54.9 C32.25,53.85 33.45,53.325 34.65,52.875 C35.4,52.575 36.075,52.275 36.525,51.9 C37.725,51 37.95,50.175 38.25,48.525 L38.325,48.3 C38.7,46.8 39.825,46.125 40.725,45.6 C41.1,45.375 41.475,45.15 41.775,44.925 C43.05,43.8 44.925,41.175 44.925,39.3 C44.925,38.7 44.775,38.25 44.4,37.875 C43.8,37.35 42.975,36.975 42.075,36.6 C41.55,36.375 41.025,36.15 40.5,35.85 C39.45,35.25 38.775,34.425 38.175,33.75 C37.8,33.3 37.425,32.85 36.975,32.475 C36.3,31.95 35.325,31.875 34.275,31.725 C33.675,31.65 33.15,31.575 32.55,31.5 C31.575,31.275 30.6,30.9 29.775,30.6 C28.95,30.3 28.2,30 27.45,29.775 C25.8,29.325 24.225,29.7 22.425,30.075 C20.25,30.525 18.825,30.675 18.075,27.75 C17.925,27.225 17.4,27 16.35,26.7 C15,26.325 12.45,25.575 13.35,22.125 C13.8,20.25 15.3,18.75 17.25,18.225 C18.675,17.775 20.1,17.925 21.375,18.45 C21.975,16.2 23.4,14.325 24.675,12.675 C26.85,9.9 28.5,9.6 31.8,9.675 L31.95,9.675 C32.025,9.675 32.175,9.675 32.325,9.675 C32.175,9.525 31.95,9.375 31.8,9.3 C31.275,8.925 30.75,8.625 30.45,8.1 C30,7.425 29.625,6.6 29.325,5.85 C28.65,4.275 28.125,3.225 27.225,3.075 C26.625,3 26.175,2.4 26.25,1.725 C26.325,1.05 26.925,0.675 27.6,0.75 C29.85,1.125 30.75,3.225 31.425,4.875 C31.725,5.55 32.025,6.225 32.325,6.675 C32.475,6.825 32.85,7.125 33.15,7.35 C33.825,7.8 34.65,8.4 34.875,9.225 C35.175,10.125 34.875,10.725 34.65,11.025 C33.975,11.925 32.775,11.925 31.95,11.85 L31.8,11.85 C29.025,11.775 28.125,11.925 26.475,13.95 C25.05,15.75 23.475,17.925 23.325,20.25 C23.325,20.7 23.025,21.075 22.575,21.225 C22.2,21.375 21.675,21.3 21.375,21 C20.475,20.175 19.125,19.875 17.85,20.25 C16.65,20.625 15.825,21.45 15.525,22.575 C15.225,23.925 15.45,24 16.95,24.375 C18.15,24.75 19.8,25.2 20.325,27.075 C20.475,27.675 20.55,27.9 20.625,27.975 C20.85,27.975 21.525,27.825 21.975,27.75 C23.925,27.375 25.8,26.925 27.975,27.525 C28.875,27.75 29.7,28.05 30.525,28.425 C31.35,28.725 32.175,29.1 33,29.25 C33.45,29.325 33.9,29.4 34.425,29.475 C35.7,29.625 37.125,29.775 38.325,30.75 C38.925,31.275 39.45,31.8 39.825,32.325 C40.35,32.925 40.8,33.525 41.475,33.9 C41.925,34.125 42.375,34.35 42.825,34.575 C43.875,35.025 44.925,35.475 45.75,36.3 C46.575,37.125 47.025,38.175 47.025,39.45 C46.95,42.3 44.55,45.45 43.05,46.725 C42.6,47.1 42.075,47.4 41.7,47.7 C40.95,48.15 40.5,48.45 40.35,48.975 L40.275,49.2 C39.9,51 39.525,52.425 37.65,53.85 C36.975,54.375 36.075,54.75 35.25,55.125 C34.35,55.5 33.375,55.95 32.925,56.475 C32.475,57 32.85,58.8 33,59.85 C33.075,60.3 33.15,60.75 33.225,61.125 C33.3,61.5 33.15,61.875 32.85,62.1 C33.075,62.025 32.775,62.175 32.55,62.175 Z" id="Path"></path>
            <path d="M33.75,67.5 C15.15,67.5 0,52.35 0,33.75 C0,15.15 15.15,0 33.75,0 C52.35,0 67.5,15.15 67.5,33.75 C67.5,52.35 52.35,67.5 33.75,67.5 Z M33.75,2.325 C16.425,2.325 2.325,16.425 2.325,33.75 C2.325,51.075 16.425,65.175 33.75,65.175 C51.075,65.175 65.175,51.075 65.175,33.75 C65.175,16.425 51.075,2.325 33.75,2.325 Z" id="Shape"></path>
            <path d="M59.925,37.275 C59.025,37.275 58.125,36.975 57.375,36.45 C54.675,34.575 53.925,30.225 53.775,29.4 C53.55,27.825 53.625,26.1 53.7,24.375 C53.775,21.45 53.925,18.45 52.5,16.2 C52.2,15.675 51.6,15.225 51.075,14.7 C50.175,13.95 49.2,13.125 49.35,11.925 C49.425,11.25 49.95,10.725 50.55,10.275 C49.875,9.9 49.125,9.675 48.375,9.45 C46.275,8.85 43.725,8.1 43.875,4.05 C43.875,3.45 44.4,2.925 45.075,2.925 C45.675,2.925 46.2,3.45 46.2,4.125 C46.125,6.375 47.025,6.6 49.05,7.2 C50.475,7.65 52.2,8.1 53.475,9.675 C53.7,9.975 53.775,10.35 53.7,10.65 C53.625,10.95 53.4,11.325 53.025,11.475 C52.275,11.775 51.9,12.075 51.675,12.225 C51.9,12.45 52.2,12.75 52.5,12.975 C53.175,13.5 53.925,14.175 54.45,15 C56.175,17.85 56.1,21.225 55.95,24.525 C55.875,26.175 55.8,27.75 56.025,29.1 C56.325,31.125 57.225,33.675 58.65,34.575 C59.25,34.95 59.85,35.1 60.525,34.875 C61.05,34.725 61.575,34.125 62.025,33.525 C62.7,32.7 63.375,31.725 64.575,31.8 C65.775,31.8 66.675,32.925 67.2,33.675 C67.575,34.2 67.425,34.875 66.9,35.25 C66.375,35.625 65.7,35.475 65.325,34.95 C64.875,34.35 64.65,34.125 64.5,34.05 C64.275,34.2 63.975,34.575 63.75,34.875 C63.075,35.7 62.25,36.75 60.9,37.05 C60.675,37.2 60.3,37.275 59.925,37.275 Z" id="Path"></path>
        </g>
    </g>
</svg>